<svg version="1.1" id="Layer_1" xmlns="http://www.w3.org/2000/svg" xmlns:xlink="http://www.w3.org/1999/xlink" x="0px" y="0px"
	 width="100%" viewBox="0 0 3508 2481"  xml:space="preserve">
<path fill="none" opacity="0.000000" stroke="none" 
	d="
M2410.000000,2484.000000 
	C1606.666870,2484.000000 804.333618,2484.000000 2.000323,2484.000000 
	C2.000215,1656.666992 2.000215,829.333923 2.000108,2.000656 
	C1171.332886,2.000437 2340.665771,2.000437 3509.999023,2.000219 
	C3509.999268,829.332703 3509.999268,1656.665405 3509.999512,2483.999023 
	C3143.666748,2484.000000 2777.333252,2484.000000 2410.000000,2484.000000 
M1084.189209,2013.285156 
	C1088.112549,1993.049316 1092.110229,1972.827515 1095.942139,1952.574463 
	C1102.031982,1920.387695 1113.144897,1890.418823 1133.714111,1864.404175 
	C1146.991455,1847.611694 1161.818115,1832.442017 1178.056763,1818.474731 
	C1222.074951,1780.613647 1272.762939,1760.850464 1330.964844,1762.376953 
	C1352.859375,1762.951172 1374.831421,1764.904663 1396.525879,1767.953491 
	C1457.941895,1776.584717 1514.426880,1797.706055 1563.603394,1836.514893 
	C1602.562012,1867.260010 1642.200562,1897.165161 1680.625854,1928.558838 
	C1725.249878,1965.016968 1769.036377,2002.508057 1812.880615,2039.909058 
	C1838.729614,2061.959229 1864.129761,2084.543945 1889.450195,2107.202637 
	C1902.851318,2119.194824 1916.594238,2131.017578 1928.526489,2144.394531 
	C1954.143433,2173.113281 1987.015869,2187.604736 2023.455444,2195.645752 
	C2036.585571,2198.543213 2046.897949,2194.571533 2055.237549,2182.746826 
	C2076.596191,2152.461182 2095.550781,2120.732422 2113.613770,2088.476807 
	C2136.723633,2047.209351 2159.817139,2005.897827 2181.473145,1963.861206 
	C2204.960205,1918.270386 2226.970215,1871.912964 2249.250244,1825.709229 
	C2258.646973,1806.222900 2266.238037,1785.838623 2276.127197,1766.622803 
	C2300.153809,1719.936646 2333.344482,1679.965576 2370.464600,1643.275269 
	C2401.780029,1612.322266 2435.890381,1584.593140 2471.476807,1558.614746 
	C2485.044678,1548.710327 2499.730713,1542.791992 2516.012939,1539.671143 
	C2546.923828,1533.746704 2577.732910,1536.408081 2608.433594,1540.692871 
	C2637.132568,1544.698486 2665.360840,1551.237549 2692.927246,1560.233032 
	C2711.560303,1566.313110 2730.823730,1571.486450 2745.702148,1585.343994 
	C2755.200439,1594.190796 2764.569336,1603.269287 2773.152100,1612.989136 
	C2798.769043,1641.999634 2821.082031,1673.578735 2843.535889,1705.034668 
	C2868.886963,1740.549194 2894.108398,1776.159668 2919.830078,1811.404663 
	C2926.665283,1820.770630 2934.541016,1829.569458 2942.968750,1837.540405 
	C2959.495850,1853.171753 2980.064697,1851.403442 2994.440186,1833.827271 
	C2997.593750,1829.971558 3000.389404,1825.799561 3003.105713,1821.614624 
	C3007.094482,1815.468994 3010.397705,1808.821655 3014.850342,1803.048950 
	C3019.809082,1796.619385 3021.121338,1789.860474 3018.892090,1782.413208 
	C3015.460938,1770.949829 3012.813965,1759.058350 3007.796631,1748.298828 
	C2991.050781,1712.389160 2973.426025,1676.888672 2956.083252,1641.258179 
	C2945.007324,1618.503174 2932.802979,1596.234863 2922.896484,1572.984863 
	C2890.252197,1496.370117 2861.557129,1418.248291 2836.393555,1338.852417 
	C2824.025879,1299.829102 2812.155518,1260.640625 2805.200195,1220.204224 
	C2802.953125,1207.141968 2800.990723,1194.066772 2803.104248,1180.558228 
	C2806.343018,1159.856445 2813.963623,1140.764282 2822.977539,1122.171875 
	C2842.679688,1081.534790 2867.700928,1044.178345 2894.833984,1008.221130 
	C2949.811035,935.365601 3005.287109,862.884888 3059.991699,789.825989 
	C3122.883789,705.833313 3185.648193,621.735962 3247.539307,537.005676 
	C3288.597656,480.795441 3328.135010,423.470764 3368.083496,366.455780 
	C3375.328125,356.116302 3381.615723,345.053528 3387.711426,333.975922 
	C3394.430176,321.766418 3393.090088,309.643158 3385.498047,298.081360 
	C3379.326416,288.682587 3371.016113,281.582123 3361.478760,275.885712 
	C3340.609375,263.420471 3318.224854,255.828888 3293.856934,253.438950 
	C3281.183594,252.195984 3271.105957,255.062027 3262.611816,264.601318 
	C3248.435303,280.521667 3233.367188,295.682526 3219.733154,312.045135 
	C3180.711182,358.875671 3141.831787,405.835999 3103.613281,453.322418 
	C3047.014160,523.646790 2991.076660,594.503723 2934.774414,665.067688 
	C2880.555664,733.020508 2828.502441,802.745850 2770.370361,867.505188 
	C2736.679932,905.036438 2700.302979,939.709351 2658.625000,968.457764 
	C2621.014893,994.400452 2580.625488,1014.276978 2536.056641,1025.265991 
	C2500.926025,1033.927979 2465.014893,1037.047241 2429.149902,1037.405640 
	C2354.198730,1038.154663 2279.227051,1037.189697 2204.267090,1036.528564 
	C2158.629639,1036.125977 2112.994385,1035.159058 2067.365967,1034.106934 
	C2029.126709,1033.225220 1991.627075,1037.769409 1954.897827,1048.369629 
	C1932.516724,1054.828979 1910.241821,1061.656616 1887.923584,1068.333496 
	C1855.837402,1077.932617 1823.343628,1084.172852 1789.561890,1081.898804 
	C1773.965576,1080.848999 1758.288330,1080.563110 1742.651733,1080.649170 
	C1719.339478,1080.777222 1696.030273,1081.934570 1672.720337,1081.919189 
	C1651.073853,1081.904907 1630.222046,1085.736328 1610.403931,1094.016479 
	C1591.679688,1101.839478 1573.219849,1110.400635 1555.094971,1119.532471 
	C1512.783813,1140.850220 1469.707642,1160.146973 1423.926758,1172.904297 
	C1416.241089,1175.046143 1408.571899,1177.431641 1401.179565,1180.410522 
	C1355.172363,1198.949707 1309.141235,1217.436157 1263.322632,1236.433838 
	C1216.566040,1255.820679 1169.768799,1274.924927 1120.939331,1288.747681 
	C1066.315552,1304.210693 1011.498169,1306.491333 956.133301,1293.731689 
	C915.667969,1284.406006 876.922668,1270.173096 840.495361,1250.364258 
	C794.561279,1225.385376 748.946655,1199.787720 703.696411,1173.589600 
	C617.215088,1123.520142 530.908386,1073.142700 444.876373,1022.305481 
	C383.796692,986.212830 323.146820,949.385315 262.583038,912.430298 
	C233.459137,894.659363 203.699112,878.499207 170.629120,869.363831 
	C146.459518,862.687073 122.055603,858.305481 96.727264,861.700073 
	C78.833656,864.098206 64.795380,877.871948 64.228592,896.270447 
	C63.977318,904.427185 65.049446,912.975159 67.368919,920.797607 
	C75.711594,948.933533 93.297531,971.537842 112.266891,993.241211 
	C132.501312,1016.391785 157.741913,1033.158813 183.288223,1049.558960 
	C293.740692,1120.467407 404.185120,1191.388550 514.684143,1262.224487 
	C621.817566,1330.902832 729.100403,1399.348633 836.116211,1468.209595 
	C859.909180,1483.519531 883.112793,1499.786987 906.086243,1516.310913 
	C916.891602,1524.083008 926.426025,1533.624512 932.945862,1545.558716 
	C937.144470,1553.243896 938.839966,1561.012939 932.979919,1568.972412 
	C931.585449,1570.866455 931.108337,1573.894409 931.207092,1576.360718 
	C932.618408,1611.621460 934.213501,1646.874878 935.738831,1682.130981 
	C937.062805,1712.732178 938.342590,1743.335205 939.663940,1773.936523 
	C941.014038,1805.204346 942.361633,1836.472290 943.764648,1867.737793 
	C945.048096,1896.339478 946.353210,1924.940430 947.740295,1953.537231 
	C949.707825,1994.102417 951.669556,2034.668457 953.808960,2075.224854 
	C955.088745,2099.486816 956.721497,2123.730713 958.159363,2147.984619 
	C958.910950,2160.662109 963.566406,2171.413818 974.286255,2178.667969 
	C991.297913,2190.180420 1010.174377,2193.957764 1030.476196,2191.322510 
	C1039.238525,2190.184814 1045.552002,2185.910400 1048.267578,2177.444336 
	C1053.035278,2162.580566 1058.623291,2147.842285 1061.752563,2132.616943 
	C1069.784302,2093.538574 1076.655762,2054.221924 1084.189209,2013.285156 
M2225.992676,929.091492 
	C2279.286621,957.496094 2336.080078,966.722839 2395.379150,957.363586 
	C2458.793457,947.354736 2511.930908,917.295715 2555.379150,870.065735 
	C2603.139404,818.148560 2629.163818,756.476074 2635.414062,686.718689 
	C2639.185059,644.634338 2635.058350,602.947266 2621.983154,562.385193 
	C2602.850342,503.030518 2569.946045,452.988922 2520.571045,414.723541 
	C2463.427490,370.437408 2398.660645,350.752350 2326.185059,357.678070 
	C2297.389893,360.429779 2269.829590,367.573120 2243.543457,379.410919 
	C2181.324219,407.430939 2135.179688,452.665314 2103.964111,512.903137 
	C2077.532959,563.908508 2066.187744,618.350159 2069.515625,675.943176 
	C2071.454346,709.494690 2077.796875,741.939575 2090.046875,773.164673 
	C2116.571045,840.774292 2160.726074,893.195312 2225.992676,929.091492 
M1118.360474,1201.628662 
	C1122.322876,1201.143188 1126.273682,1200.506836 1130.249756,1200.197632 
	C1151.623901,1198.535889 1172.321411,1193.694336 1192.439453,1186.502319 
	C1242.276489,1168.685669 1283.733032,1138.899780 1317.158813,1097.969604 
	C1364.543091,1039.947388 1386.551880,972.750305 1387.140991,898.479126 
	C1387.298096,878.651367 1385.159668,858.468079 1381.278809,839.005554 
	C1366.493164,764.855103 1331.150513,702.449158 1270.847290,655.737610 
	C1201.506470,602.025513 1123.438843,585.263672 1038.213013,605.279419 
	C982.462280,618.372803 936.089478,648.093628 897.933655,690.710144 
	C851.650635,742.403870 826.282288,803.278748 820.443420,872.006348 
	C816.366882,919.989685 822.315186,967.009766 839.725037,1012.303101 
	C859.911621,1064.820068 891.295105,1109.183716 935.844543,1143.699585 
	C988.937012,1184.834473 1049.311157,1204.019531 1118.360474,1201.628662 
z"/>
<path fill="#67BBBD" opacity="1.000000" stroke="none" 
	d="
M1084.090088,2014.142822 
	C1076.655762,2054.221924 1069.784302,2093.538574 1061.752563,2132.616943 
	C1058.623291,2147.842285 1053.035278,2162.580566 1048.267578,2177.444336 
	C1045.552002,2185.910400 1039.238525,2190.184814 1030.476196,2191.322510 
	C1010.174377,2193.957764 991.297913,2190.180420 974.286255,2178.667969 
	C963.566406,2171.413818 958.910950,2160.662109 958.159363,2147.984619 
	C956.721497,2123.730713 955.088745,2099.486816 953.808960,2075.224854 
	C951.669556,2034.668457 949.707825,1994.102417 947.740295,1953.537231 
	C946.353210,1924.940430 945.048096,1896.339478 943.764648,1867.737793 
	C942.361633,1836.472290 941.014038,1805.204346 939.663940,1773.936523 
	C938.342590,1743.335205 937.062805,1712.732178 935.738831,1682.130981 
	C934.213501,1646.874878 932.618408,1611.621460 931.207092,1576.360718 
	C931.108337,1573.894409 931.585449,1570.866455 932.979919,1568.972412 
	C938.839966,1561.012939 937.144470,1553.243896 932.945862,1545.558716 
	C926.426025,1533.624512 916.891602,1524.083008 906.086243,1516.310913 
	C883.112793,1499.786987 859.909180,1483.519531 836.116211,1468.209595 
	C729.100403,1399.348633 621.817566,1330.902832 514.684143,1262.224487 
	C404.185120,1191.388550 293.740692,1120.467407 183.288223,1049.558960 
	C157.741913,1033.158813 132.501312,1016.391785 112.266891,993.241211 
	C93.297531,971.537842 75.711594,948.933533 67.368919,920.797607 
	C65.049446,912.975159 63.977318,904.427185 64.228592,896.270447 
	C64.795380,877.871948 78.833656,864.098206 96.727264,861.700073 
	C122.055603,858.305481 146.459518,862.687073 170.629120,869.363831 
	C203.699112,878.499207 233.459137,894.659363 262.583038,912.430298 
	C323.146820,949.385315 383.796692,986.212830 444.876373,1022.305481 
	C530.908386,1073.142700 617.215088,1123.520142 703.696411,1173.589600 
	C748.946655,1199.787720 794.561279,1225.385376 840.495361,1250.364258 
	C876.922668,1270.173096 915.667969,1284.406006 956.133301,1293.731689 
	C1011.498169,1306.491333 1066.315552,1304.210693 1120.939331,1288.747681 
	C1169.768799,1274.924927 1216.566040,1255.820679 1263.322632,1236.433838 
	C1309.141235,1217.436157 1355.172363,1198.949707 1401.179565,1180.410522 
	C1408.571899,1177.431641 1416.241089,1175.046143 1423.926758,1172.904297 
	C1469.707642,1160.146973 1512.783813,1140.850220 1555.094971,1119.532471 
	C1573.219849,1110.400635 1591.679688,1101.839478 1610.403931,1094.016479 
	C1630.222046,1085.736328 1651.073853,1081.904907 1672.720337,1081.919189 
	C1696.030273,1081.934570 1719.339478,1080.777222 1742.651733,1080.649170 
	C1758.288330,1080.563110 1773.965576,1080.848999 1789.561890,1081.898804 
	C1823.343628,1084.172852 1855.837402,1077.932617 1887.923584,1068.333496 
	C1910.241821,1061.656616 1932.516724,1054.828979 1954.897827,1048.369629 
	C1991.627075,1037.769409 2029.126709,1033.225220 2067.365967,1034.106934 
	C2112.994385,1035.159058 2158.629639,1036.125977 2204.267090,1036.528564 
	C2279.227051,1037.189697 2354.198730,1038.154663 2429.149902,1037.405640 
	C2465.014893,1037.047241 2500.926025,1033.927979 2536.056641,1025.265991 
	C2580.625488,1014.276978 2621.014893,994.400452 2658.625000,968.457764 
	C2700.302979,939.709351 2736.679932,905.036438 2770.370361,867.505188 
	C2828.502441,802.745850 2880.555664,733.020508 2934.774414,665.067688 
	C2991.076660,594.503723 3047.014160,523.646790 3103.613281,453.322418 
	C3141.831787,405.835999 3180.711182,358.875671 3219.733154,312.045135 
	C3233.367188,295.682526 3248.435303,280.521667 3262.611816,264.601318 
	C3271.105957,255.062027 3281.183594,252.195984 3293.856934,253.438950 
	C3318.224854,255.828888 3340.609375,263.420471 3361.478760,275.885712 
	C3371.016113,281.582123 3379.326416,288.682587 3385.498047,298.081360 
	C3393.090088,309.643158 3394.430176,321.766418 3387.711426,333.975922 
	C3381.615723,345.053528 3375.328125,356.116302 3368.083496,366.455780 
	C3328.135010,423.470764 3288.597656,480.795441 3247.539307,537.005676 
	C3185.648193,621.735962 3122.883789,705.833313 3059.991699,789.825989 
	C3005.287109,862.884888 2949.811035,935.365601 2894.833984,1008.221130 
	C2867.700928,1044.178345 2842.679688,1081.534790 2822.977539,1122.171875 
	C2813.963623,1140.764282 2806.343018,1159.856445 2803.104248,1180.558228 
	C2800.990723,1194.066772 2802.953125,1207.141968 2805.200195,1220.204224 
	C2812.155518,1260.640625 2824.025879,1299.829102 2836.393555,1338.852417 
	C2861.557129,1418.248291 2890.252197,1496.370117 2922.896484,1572.984863 
	C2932.802979,1596.234863 2945.007324,1618.503174 2956.083252,1641.258179 
	C2973.426025,1676.888672 2991.050781,1712.389160 3007.796631,1748.298828 
	C3012.813965,1759.058350 3015.460938,1770.949829 3018.892090,1782.413208 
	C3021.121338,1789.860474 3019.809082,1796.619385 3014.850342,1803.048950 
	C3010.397705,1808.821655 3007.094482,1815.468994 3003.105713,1821.614624 
	C3000.389404,1825.799561 2997.593750,1829.971558 2994.440186,1833.827271 
	C2980.064697,1851.403442 2959.495850,1853.171753 2942.968750,1837.540405 
	C2934.541016,1829.569458 2926.665283,1820.770630 2919.830078,1811.404663 
	C2894.108398,1776.159668 2868.886963,1740.549194 2843.535889,1705.034668 
	C2821.082031,1673.578735 2798.769043,1641.999634 2773.152100,1612.989136 
	C2764.569336,1603.269287 2755.200439,1594.190796 2745.702148,1585.343994 
	C2730.823730,1571.486450 2711.560303,1566.313110 2692.927246,1560.233032 
	C2665.360840,1551.237549 2637.132568,1544.698486 2608.433594,1540.692871 
	C2577.732910,1536.408081 2546.923828,1533.746704 2516.012939,1539.671143 
	C2499.730713,1542.791992 2485.044678,1548.710327 2471.476807,1558.614746 
	C2435.890381,1584.593140 2401.780029,1612.322266 2370.464600,1643.275269 
	C2333.344482,1679.965576 2300.153809,1719.936646 2276.127197,1766.622803 
	C2266.238037,1785.838623 2258.646973,1806.222900 2249.250244,1825.709229 
	C2226.970215,1871.912964 2204.960205,1918.270386 2181.473145,1963.861206 
	C2159.817139,2005.897827 2136.723633,2047.209351 2113.613770,2088.476807 
	C2095.550781,2120.732422 2076.596191,2152.461182 2055.237549,2182.746826 
	C2046.897949,2194.571533 2036.585571,2198.543213 2023.455444,2195.645752 
	C1987.015869,2187.604736 1954.143433,2173.113281 1928.526489,2144.394531 
	C1916.594238,2131.017578 1902.851318,2119.194824 1889.450195,2107.202637 
	C1864.129761,2084.543945 1838.729614,2061.959229 1812.880615,2039.909058 
	C1769.036377,2002.508057 1725.249878,1965.016968 1680.625854,1928.558838 
	C1642.200562,1897.165161 1602.562012,1867.260010 1563.603394,1836.514893 
	C1514.426880,1797.706055 1457.941895,1776.584717 1396.525879,1767.953491 
	C1374.831421,1764.904663 1352.859375,1762.951172 1330.964844,1762.376953 
	C1272.762939,1760.850464 1222.074951,1780.613647 1178.056763,1818.474731 
	C1161.818115,1832.442017 1146.991455,1847.611694 1133.714111,1864.404175 
	C1113.144897,1890.418823 1102.031982,1920.387695 1095.942139,1952.574463 
	C1092.110229,1972.827515 1088.112549,1993.049316 1084.090088,2014.142822 
M1929.163696,1993.822388 
	C1943.322998,2010.637695 1957.388062,2027.533813 1971.693237,2044.224121 
	C1976.651367,2050.009033 1981.703125,2055.906006 1987.594971,2060.656982 
	C1998.971924,2069.831299 2010.993286,2068.207520 2019.669800,2056.417969 
	C2023.963013,2050.584229 2027.544556,2044.034302 2030.351807,2037.348022 
	C2033.949341,2028.780151 2036.309448,2019.701294 2039.431885,2010.923950 
	C2085.287842,1882.018188 2131.225830,1753.141479 2177.047607,1624.223267 
	C2198.898926,1562.744507 2220.446289,1501.157593 2242.324219,1439.688354 
	C2254.542969,1405.357910 2262.506104,1370.163818 2266.541992,1333.922729 
	C2270.059570,1302.340210 2271.231445,1270.953247 2266.112061,1239.428833 
	C2262.592773,1217.758545 2253.226318,1200.366333 2233.152100,1189.980957 
	C2223.990479,1185.241211 2214.910400,1180.236572 2205.402832,1176.292603 
	C2178.281982,1165.042236 2150.046387,1157.278198 2121.488525,1150.644775 
	C2080.838867,1141.202881 2039.834961,1135.489258 1997.917358,1135.794556 
	C1929.265625,1136.294800 1860.603149,1136.108643 1791.951782,1135.494385 
	C1769.090088,1135.290039 1746.817871,1137.320435 1725.015503,1144.200439 
	C1720.574585,1145.601929 1716.057617,1146.761353 1711.586060,1148.068359 
	C1673.953491,1159.067871 1637.797119,1173.274536 1606.564575,1197.723145 
	C1570.903442,1225.638428 1535.708740,1254.104858 1499.008545,1280.732666 
	C1472.800781,1299.747925 1456.638916,1326.539795 1451.330933,1359.029663 
	C1446.458618,1388.853882 1449.723877,1418.033203 1459.227051,1446.578369 
	C1463.320068,1458.872803 1467.053345,1471.319702 1476.434326,1481.100464 
	C1484.501953,1489.511719 1492.113037,1498.362549 1499.878418,1507.061646 
	C1523.394531,1533.406006 1546.934692,1559.729370 1570.378906,1586.137817 
	C1605.100830,1625.250366 1639.748657,1664.428711 1674.428223,1703.578857 
	C1701.819092,1734.500977 1729.279175,1765.361816 1756.583862,1796.359863 
	C1793.575195,1838.355103 1830.500977,1880.408325 1867.349609,1922.528564 
	C1887.747559,1945.844727 1907.931030,1969.348267 1929.163696,1993.822388 
z"/>
<path fill="#67BBBD" opacity="1.000000" stroke="none" 
	d="
M2225.343262,928.733154 
	C2160.726074,893.195312 2116.571045,840.774292 2090.046875,773.164673 
	C2077.796875,741.939575 2071.454346,709.494690 2069.515625,675.943176 
	C2066.187744,618.350159 2077.532959,563.908508 2103.964111,512.903137 
	C2135.179688,452.665314 2181.324219,407.430939 2243.543457,379.410919 
	C2269.829590,367.573120 2297.389893,360.429779 2326.185059,357.678070 
	C2398.660645,350.752350 2463.427490,370.437408 2520.571045,414.723541 
	C2569.946045,452.988922 2602.850342,503.030518 2621.983154,562.385193 
	C2635.058350,602.947266 2639.185059,644.634338 2635.414062,686.718689 
	C2629.163818,756.476074 2603.139404,818.148560 2555.379150,870.065735 
	C2511.930908,917.295715 2458.793457,947.354736 2395.379150,957.363586 
	C2336.080078,966.722839 2279.286621,957.496094 2225.343262,928.733154 
z"/>
<path fill="#67BBBD" opacity="1.000000" stroke="none" 
	d="
M1117.418213,1201.656982 
	C1049.311157,1204.019531 988.937012,1184.834473 935.844543,1143.699585 
	C891.295105,1109.183716 859.911621,1064.820068 839.725037,1012.303101 
	C822.315186,967.009766 816.366882,919.989685 820.443420,872.006348 
	C826.282288,803.278748 851.650635,742.403870 897.933655,690.710144 
	C936.089478,648.093628 982.462280,618.372803 1038.213013,605.279419 
	C1123.438843,585.263672 1201.506470,602.025513 1270.847290,655.737610 
	C1331.150513,702.449158 1366.493164,764.855103 1381.278809,839.005554 
	C1385.159668,858.468079 1387.298096,878.651367 1387.140991,898.479126 
	C1386.551880,972.750305 1364.543091,1039.947388 1317.158813,1097.969604 
	C1283.733032,1138.899780 1242.276489,1168.685669 1192.439453,1186.502319 
	C1172.321411,1193.694336 1151.623901,1198.535889 1130.249756,1200.197632 
	C1126.273682,1200.506836 1122.322876,1201.143188 1117.418213,1201.656982 
z"/>
<path fill="#FFFFFF" opacity="0.000000" stroke="none" 
	d="
M1928.687500,1993.294800 
	C1907.931030,1969.348267 1887.747559,1945.844727 1867.349609,1922.528564 
	C1830.500977,1880.408325 1793.575195,1838.355103 1756.583862,1796.359863 
	C1729.279175,1765.361816 1701.819092,1734.500977 1674.428223,1703.578857 
	C1639.748657,1664.428711 1605.100830,1625.250366 1570.378906,1586.137817 
	C1546.934692,1559.729370 1523.394531,1533.406006 1499.878418,1507.061646 
	C1492.113037,1498.362549 1484.501953,1489.511719 1476.434326,1481.100464 
	C1467.053345,1471.319702 1463.320068,1458.872803 1459.227051,1446.578369 
	C1449.723877,1418.033203 1446.458618,1388.853882 1451.330933,1359.029663 
	C1456.638916,1326.539795 1472.800781,1299.747925 1499.008545,1280.732666 
	C1535.708740,1254.104858 1570.903442,1225.638428 1606.564575,1197.723145 
	C1637.797119,1173.274536 1673.953491,1159.067871 1711.586060,1148.068359 
	C1716.057617,1146.761353 1720.574585,1145.601929 1725.015503,1144.200439 
	C1746.817871,1137.320435 1769.090088,1135.290039 1791.951782,1135.494385 
	C1860.603149,1136.108643 1929.265625,1136.294800 1997.917358,1135.794556 
	C2039.834961,1135.489258 2080.838867,1141.202881 2121.488525,1150.644775 
	C2150.046387,1157.278198 2178.281982,1165.042236 2205.402832,1176.292603 
	C2214.910400,1180.236572 2223.990479,1185.241211 2233.152100,1189.980957 
	C2253.226318,1200.366333 2262.592773,1217.758545 2266.112061,1239.428833 
	C2271.231445,1270.953247 2270.059570,1302.340210 2266.541992,1333.922729 
	C2262.506104,1370.163818 2254.542969,1405.357910 2242.324219,1439.688354 
	C2220.446289,1501.157593 2198.898926,1562.744507 2177.047607,1624.223267 
	C2131.225830,1753.141479 2085.287842,1882.018188 2039.431885,2010.923950 
	C2036.309448,2019.701294 2033.949341,2028.780151 2030.351807,2037.348022 
	C2027.544556,2044.034302 2023.963013,2050.584229 2019.669800,2056.417969 
	C2010.993286,2068.207520 1998.971924,2069.831299 1987.594971,2060.656982 
	C1981.703125,2055.906006 1976.651367,2050.009033 1971.693237,2044.224121 
	C1957.388062,2027.533813 1943.322998,2010.637695 1928.687500,1993.294800 
z"/>
</svg>